<svg width="41" height="41" viewBox="0 0 41 41" fill="none" xmlns="http://www.w3.org/2000/svg">
<path fill-rule="evenodd" clip-rule="evenodd" d="M7.37202 20.4398L5.97119 17.0283L4.5789 20.4398H7.37202ZM20.7978 24.1315L20.7893 17.4314L17.8236 24.1315H16.0299L13.0539 17.4246V24.1315H8.89585L8.11002 22.2233H3.85115L3.05677 24.1315H0.835938L4.4986 15.5762H7.53602L11.0142 23.6771V15.5762H14.3523L17.0292 21.3794L19.4875 15.5762H22.8939V24.1315H20.7978ZM26.15 22.3822V20.679H30.6395V18.933H26.15V17.3768H31.2767L33.5146 19.8709L31.1776 22.3822H26.15ZM40.0063 24.1657H37.3481L34.8301 21.3315L32.2129 24.1657H24.112V15.6069H32.3376L34.854 18.412L37.4558 15.6069H40.1276L36.1523 19.8863L40.0063 24.1657Z" fill="black"/>
</svg>
