<svg width="77" height="46" viewBox="0 0 77 46" fill="none" xmlns="http://www.w3.org/2000/svg">
<rect width="77" height="46" rx="5" fill="#FFFFFB"/>
<path fill-rule="evenodd" clip-rule="evenodd" d="M25.372 22.4398L23.9712 19.0283L22.5789 22.4398H25.372ZM38.7978 26.1315L38.7893 19.4314L35.8236 26.1315H34.0299L31.0539 19.4246V26.1315H26.8959L26.11 24.2233H21.8511L21.0568 26.1315H18.8359L22.4986 17.5762H25.536L29.0142 25.6771V17.5762H32.3523L35.0292 23.3794L37.4875 17.5762H40.8939V26.1315H38.7978ZM44.15 24.3822V22.679H48.6395V20.933H44.15V19.3768H49.2767L51.5146 21.8709L49.1776 24.3822H44.15ZM58.0063 26.1657H55.3481L52.8301 23.3315L50.2129 26.1657H42.112V17.6069H50.3376L52.854 20.412L55.4558 17.6069H58.1276L54.1523 21.8863L58.0063 26.1657Z" fill="black"/>
</svg>
