<svg width="42" height="42" viewBox="0 0 42 42" fill="none" xmlns="http://www.w3.org/2000/svg">
<path d="M29.75 36.75L29.75 5.25M29.75 36.75L22.75 29.75M29.75 36.75L36.75 29.75M14.7 7L8.05 7C7.06991 7 6.57986 7 6.20552 7.19074C5.87623 7.35851 5.60852 7.62623 5.44074 7.95551C5.25 8.32986 5.25 8.81991 5.25 9.8L5.25 16.45C5.25 17.4301 5.25 17.9201 5.44074 18.2945C5.60852 18.6238 5.87623 18.8915 6.20552 19.0593C6.57986 19.25 7.06991 19.25 8.05 19.25L14.7 19.25C15.6801 19.25 16.1701 19.25 16.5445 19.0593C16.8738 18.8915 17.1415 18.6238 17.3093 18.2945C17.5 17.9201 17.5 17.4301 17.5 16.45L17.5 9.8C17.5 8.81991 17.5 8.32986 17.3093 7.95551C17.1415 7.62623 16.8738 7.35852 16.5445 7.19074C16.1701 7 15.6801 7 14.7 7ZM14.7 26.25L11.55 26.25C10.5699 26.25 10.0799 26.25 9.70552 26.4407C9.37623 26.6085 9.10852 26.8762 8.94074 27.2055C8.75 27.5799 8.75 28.0699 8.75 29.05L8.75 32.2C8.75 33.1801 8.75 33.6701 8.94074 34.0445C9.10852 34.3738 9.37623 34.6415 9.70552 34.8093C10.0799 35 10.5699 35 11.55 35L14.7 35C15.6801 35 16.1701 35 16.5445 34.8093C16.8738 34.6415 17.1415 34.3738 17.3093 34.0445C17.5 33.6701 17.5 33.1801 17.5 32.2L17.5 29.05C17.5 28.0699 17.5 27.5799 17.3093 27.2055C17.1415 26.8762 16.8738 26.6085 16.5445 26.4407C16.1701 26.25 15.6801 26.25 14.7 26.25Z" stroke="#219653" stroke-width="2" stroke-linecap="round" stroke-linejoin="round"/>
</svg>
