<svg width="26" height="26" viewBox="0 0 26 26" fill="none" xmlns="http://www.w3.org/2000/svg">
<g clip-path="url(#clip0_947_3103)">
<path d="M25.9993 13.0793C25.9993 5.85455 20.1786 -0.00195312 12.9993 -0.00195312C5.81684 -0.000328125 -0.00390625 5.85455 -0.00390625 13.0809C-0.00390625 19.6085 4.75084 25.0198 10.9648 26.0013V16.8607H7.66609V13.0809H10.9681V10.1965C10.9681 6.91892 12.91 5.10867 15.8788 5.10867C17.3023 5.10867 18.7892 5.3638 18.7892 5.3638V8.5813H17.1496C15.536 8.5813 15.0322 9.59042 15.0322 10.6255V13.0793H18.6365L18.0612 16.859H15.0306V25.9997C21.2446 25.0182 25.9993 19.6069 25.9993 13.0793Z" fill="black"/>
</g>
<defs>
<clipPath id="clip0_947_3103">
<rect width="26" height="26" fill="white"/>
</clipPath>
</defs>
</svg>
