<svg width="25" height="25" viewBox="0 0 25 25" fill="none" xmlns="http://www.w3.org/2000/svg">
<path d="M3.125 9.375H21.875M7.29167 3.125V5.20833M17.7083 3.125V5.20833M6.25 13.5417H8.33333M6.25 17.7083H8.33333M11.4583 13.5417H13.5417M11.4583 17.7083H13.5417M16.6667 13.5417H18.75M16.6667 17.7083H18.75M6.45833 21.875H18.5417C19.7084 21.875 20.2918 21.875 20.7375 21.6479C21.1295 21.4482 21.4482 21.1295 21.6479 20.7375C21.875 20.2918 21.875 19.7084 21.875 18.5417V8.54167C21.875 7.37489 21.875 6.7915 21.6479 6.34585C21.4482 5.95385 21.1295 5.63514 20.7375 5.4354C20.2918 5.20833 19.7084 5.20833 18.5417 5.20833H6.45833C5.29156 5.20833 4.70817 5.20833 4.26252 5.4354C3.87052 5.63514 3.55181 5.95385 3.35207 6.34585C3.125 6.7915 3.125 7.37489 3.125 8.54167V18.5417C3.125 19.7084 3.125 20.2918 3.35207 20.7375C3.55181 21.1295 3.87052 21.4482 4.26252 21.6479C4.70817 21.875 5.29156 21.875 6.45833 21.875Z" stroke="#6F6E6D" stroke-width="1.5" stroke-linecap="round" stroke-linejoin="round"/>
</svg>
