<svg width="69" height="68" viewBox="0 0 69 68" fill="none" xmlns="http://www.w3.org/2000/svg">
<circle cx="34.5" cy="34" r="34" fill="#EFE33B"/>
<path d="M45.2951 24C44.6031 24.6108 44.1667 25.5044 44.1667 26.5C44.1667 28.3409 45.6591 29.8333 47.5 29.8333C47.7877 29.8333 49.1667 29.8333 49.9999 29M25 44C26.3017 42.6983 26.3017 40.3017 25 39C23.6983 37.6983 21.3017 37.6983 20 39M25 24C26.3017 25.3017 26.3017 27.6983 25 29C23.6983 30.3017 21.3017 30.3017 20 29M45 44C43.6983 42.6983 43.6983 40.3017 45 39C46.3017 37.6983 48.6983 37.6983 50 39M25.3333 44H44.6667C46.5335 44 47.4669 44 48.18 43.6367C48.8072 43.3171 49.3171 42.8072 49.6367 42.18C50 41.4669 50 40.5335 50 38.6667V29.3333C50 27.4665 50 26.5331 49.6367 25.82C49.3171 25.1928 48.8072 24.6829 48.18 24.3633C47.4669 24 46.5335 24 44.6667 24H25.3333C23.4665 24 22.5331 24 21.82 24.3633C21.1928 24.6829 20.6829 25.1928 20.3633 25.82C20 26.5331 20 27.4665 20 29.3333V38.6667C20 40.5335 20 41.4669 20.3633 42.18C20.6829 42.8072 21.1928 43.3171 21.82 43.6367C22.5331 44 23.4665 44 25.3333 44ZM38.3333 34C38.3333 35.8409 36.8409 37.3333 35 37.3333C33.1591 37.3333 31.6667 35.8409 31.6667 34C31.6667 32.1591 33.1591 30.6667 35 30.6667C36.8409 30.6667 38.3333 32.1591 38.3333 34Z" stroke="black" stroke-width="2" stroke-linecap="round" stroke-linejoin="round"/>
</svg>
