<svg width="31" height="30" viewBox="0 0 31 30" fill="none" xmlns="http://www.w3.org/2000/svg">
<path fill-rule="evenodd" clip-rule="evenodd" d="M15.5 26.25C16.9774 26.25 18.4403 25.959 19.8052 25.3936C21.1701 24.8283 22.4103 23.9996 23.455 22.955C24.4996 21.9103 25.3283 20.6701 25.8936 19.3052C26.459 17.9403 26.75 16.4774 26.75 15C26.75 13.5226 26.459 12.0597 25.8936 10.6948C25.3283 9.3299 24.4996 8.08971 23.455 7.04505C22.4103 6.00039 21.1701 5.17172 19.8052 4.60636C18.4403 4.04099 16.9774 3.75 15.5 3.75C12.5163 3.75 9.65483 4.93526 7.54505 7.04505C5.43526 9.15483 4.25 12.0163 4.25 15C4.25 17.9837 5.43526 20.8452 7.54505 22.955C9.65483 25.0647 12.5163 26.25 15.5 26.25ZM15.21 19.55L21.46 12.05L19.54 10.45L14.165 16.8988L11.3837 14.1163L9.61625 15.8837L13.3663 19.6337L14.3338 20.6013L15.21 19.55Z" fill="black"/>
</svg>
