<svg width="42" height="42" viewBox="0 0 42 42" fill="none" xmlns="http://www.w3.org/2000/svg">
<path d="M24.5 21H31.5C31.5 17.2853 29.3956 14.0343 26.25 12.25L22.5215 17.8471M24.5 21C24.5 22.933 22.933 24.5 21 24.5C19.067 24.5 17.5 22.933 17.5 21M24.5 21C24.5 19.067 22.933 17.5 21 17.5C19.067 17.5 17.5 19.067 17.5 21M17.5 21H10.5C10.5 17.2856 12.6044 14.0347 15.75 12.25L19.4785 17.8471M19.4798 24.1535L15.75 29.7504C17.2838 30.8612 19.0798 31.5 20.9997 31.5C22.9198 31.5 24.7161 30.861 26.25 29.75L22.5202 24.1535M36.75 21C36.75 29.6985 29.6985 36.75 21 36.75C12.3015 36.75 5.25 29.6985 5.25 21C5.25 12.3015 12.3015 5.25 21 5.25C29.6985 5.25 36.75 12.3015 36.75 21Z" stroke="#219653" stroke-width="2" stroke-linecap="round" stroke-linejoin="round"/>
</svg>
