<svg width="25" height="25" viewBox="0 0 25 25" fill="none" xmlns="http://www.w3.org/2000/svg">
<path d="M14.5833 7.44389C14.0625 7.29565 13.2136 7.29019 12.5 7.29565C12.2614 7.29748 12.4056 7.28583 12.0833 7.29565C11.2423 7.32576 10.4184 7.72689 10.4167 8.86336C10.4148 10.074 11.4583 10.4322 12.5 10.4322C13.5417 10.4322 14.5833 10.7086 14.5833 12.0011C14.5833 12.9725 13.7422 13.3981 12.6939 13.539C11.8605 13.539 11.4583 13.57 10.4167 13.4206M12.5 13.5417V14.5833M12.5 6.25V7.29167M21.875 17.7083V18.5417C21.875 19.7084 21.875 20.2918 21.6479 20.7375C21.4482 21.1295 21.1295 21.4482 20.7375 21.6479C20.2918 21.875 19.7084 21.875 18.5417 21.875H6.45833C5.29156 21.875 4.70817 21.875 4.26252 21.6479C3.87052 21.4482 3.55181 21.1295 3.35207 20.7375C3.125 20.2918 3.125 19.7084 3.125 18.5417V17.7083M19.7917 10.4167C19.7917 14.4437 16.5271 17.7083 12.5 17.7083C8.47292 17.7083 5.20833 14.4437 5.20833 10.4167C5.20833 6.38959 8.47292 3.125 12.5 3.125C16.5271 3.125 19.7917 6.38959 19.7917 10.4167Z" stroke="#219653" stroke-width="2" stroke-linecap="round" stroke-linejoin="round"/>
</svg>
