<svg width="50" height="8" viewBox="0 0 50 8" fill="none" xmlns="http://www.w3.org/2000/svg">
<g clip-path="url(#clip0_947_3123)">
<path d="M26.4023 0.0341797C24.0604 0.0341797 22.1602 1.77697 22.1602 3.92785C22.1602 6.21474 23.9778 7.92413 26.4023 7.92413C28.7664 7.92413 30.633 6.19204 30.633 3.97278C30.633 1.76664 28.7789 0.0341797 26.4023 0.0341797Z" fill="url(#paint0_linear_947_3123)"/>
<g filter="url(#filter0_i_947_3123)">
<path d="M26.4023 0.0341797C24.0604 0.0341797 22.1602 1.77697 22.1602 3.92785C22.1602 6.21474 23.9778 7.92413 26.4023 7.92413C28.7664 7.92413 30.633 6.19204 30.633 3.97278C30.633 1.76664 28.7789 0.0341797 26.4023 0.0341797Z" fill="url(#paint1_linear_947_3123)"/>
</g>
<path d="M2.31963 0.175767H0.0390625V7.75288H2.30771C3.51143 7.75288 4.38193 7.48125 5.14561 6.87865C6.05166 6.16284 6.58896 5.08349 6.58896 3.96795C6.58896 1.73093 4.83457 0.175767 2.31963 0.175767ZM4.1333 5.86665C3.64297 6.28805 3.01162 6.47018 2.0083 6.47018H1.5915V1.45884H2.0083C3.01162 1.45884 3.61875 1.62944 4.1333 2.07205C4.66992 2.52656 4.98994 3.23037 4.98994 3.95716C4.98994 4.68553 4.66992 5.41391 4.1333 5.86665ZM7.30518 7.75288H8.85518V0.175767H7.30537V7.75288H7.30518ZM12.6497 3.08228C11.7182 2.75353 11.444 2.5367 11.444 2.12916C11.444 1.65158 11.9321 1.28832 12.6012 1.28832C13.0663 1.28832 13.4479 1.47 13.8547 1.90042L14.6647 0.890836C13.9968 0.332976 13.1979 0.0493479 12.3263 0.0493479C10.9202 0.0493479 9.8459 0.981441 9.8459 2.21865C9.8459 3.26479 10.3465 3.79828 11.8021 4.29949C12.4107 4.50293 12.7201 4.63865 12.8756 4.73139C13.1856 4.9246 13.3414 5.19632 13.3414 5.51418C13.3414 6.1287 12.828 6.58246 12.1353 6.58246C11.3956 6.58246 10.7999 6.23065 10.4419 5.57177L9.44111 6.49307C10.1554 7.49149 11.0144 7.93605 12.1964 7.93605C13.8065 7.93605 14.939 6.91214 14.939 5.44693C14.939 4.24237 14.4155 3.6966 12.6497 3.08228ZM15.4278 3.96805C15.4278 6.19735 17.2653 7.92386 19.6276 7.92386C20.2955 7.92386 20.868 7.79809 21.5725 7.48116V5.74191C20.9514 6.33335 20.4025 6.5713 19.6984 6.5713C18.1363 6.5713 17.0263 5.49167 17.0263 3.95716C17.0263 2.50358 18.171 1.35586 19.6276 1.35586C20.366 1.35586 20.9275 1.60563 21.5725 2.20777V0.468697C20.8926 0.140325 20.3311 0.00488281 19.6631 0.00488281C17.3128 0.00488281 15.4278 1.76628 15.4278 3.96805ZM34.1438 5.26553L32.0205 0.175767H30.3266L33.7035 7.94646H34.5378L37.9736 0.175673H36.2923L34.1438 5.26553ZM38.679 7.75298H43.0799V6.47018H40.2294V4.42358H42.9708V3.1406H40.2294V1.45874H43.0799V0.17586H38.6789V7.75298H38.679ZM49.2214 2.41195C49.2214 0.992511 48.197 0.175767 46.4066 0.175767H44.1042V7.75288H45.6564V4.70758H45.8596L48.0056 7.75288H49.9142L47.4076 4.56125C48.5783 4.33316 49.2214 3.57158 49.2214 2.41195ZM46.1079 3.6633H45.6564V1.3673H46.1327C47.101 1.3673 47.6256 1.75474 47.6256 2.49214C47.6256 3.25279 47.101 3.6633 46.1079 3.6633Z" fill="#0B1015"/>
</g>
<defs>
<filter id="filter0_i_947_3123" x="22.1602" y="0.0341797" width="11.4727" height="10.8901" filterUnits="userSpaceOnUse" color-interpolation-filters="sRGB">
<feFlood flood-opacity="0" result="BackgroundImageFix"/>
<feBlend mode="normal" in="SourceGraphic" in2="BackgroundImageFix" result="shape"/>
<feColorMatrix in="SourceAlpha" type="matrix" values="0 0 0 0 0 0 0 0 0 0 0 0 0 0 0 0 0 0 127 0" result="hardAlpha"/>
<feOffset dx="3" dy="3"/>
<feGaussianBlur stdDeviation="4"/>
<feComposite in2="hardAlpha" operator="arithmetic" k2="-1" k3="1"/>
<feColorMatrix type="matrix" values="0 0 0 0 0 0 0 0 0 0 0 0 0 0 0 0 0 0 0.5 0"/>
<feBlend mode="normal" in2="shape" result="effect1_innerShadow_947_3123"/>
</filter>
<linearGradient id="paint0_linear_947_3123" x1="186.652" y1="71.5408" x2="729.914" y2="673.903" gradientUnits="userSpaceOnUse">
<stop stop-color="#F34F26"/>
<stop offset="1" stop-color="#F69E35"/>
</linearGradient>
<linearGradient id="paint1_linear_947_3123" x1="186.652" y1="71.5408" x2="729.914" y2="673.903" gradientUnits="userSpaceOnUse">
<stop stop-color="#F34F26"/>
<stop offset="1" stop-color="#F69E35"/>
</linearGradient>
<clipPath id="clip0_947_3123">
<rect width="50" height="8" fill="white"/>
</clipPath>
</defs>
</svg>
