<svg width="77" height="46" viewBox="0 0 77 46" fill="none" xmlns="http://www.w3.org/2000/svg">
<rect width="77" height="46" rx="5" fill="#FFFFFB"/>
<g clip-path="url(#clip0_947_3340)">
<path d="M39.4023 19.0342C37.0604 19.0342 35.1602 20.777 35.1602 22.9279C35.1602 25.2147 36.9778 26.9241 39.4023 26.9241C41.7664 26.9241 43.633 25.192 43.633 22.9728C43.633 20.7666 41.7789 19.0342 39.4023 19.0342Z" fill="url(#paint0_linear_947_3340)"/>
<g filter="url(#filter0_i_947_3340)">
<path d="M39.4023 19.0342C37.0604 19.0342 35.1602 20.777 35.1602 22.9279C35.1602 25.2147 36.9778 26.9241 39.4023 26.9241C41.7664 26.9241 43.633 25.192 43.633 22.9728C43.633 20.7666 41.7789 19.0342 39.4023 19.0342Z" fill="url(#paint1_linear_947_3340)"/>
</g>
<path d="M15.3196 19.1758H13.0391V26.7529H15.3077C16.5114 26.7529 17.3819 26.4813 18.1456 25.8787C19.0517 25.1628 19.589 24.0835 19.589 22.968C19.589 20.7309 17.8346 19.1758 15.3196 19.1758ZM17.1333 24.8667C16.643 25.288 16.0116 25.4702 15.0083 25.4702H14.5915V20.4588H15.0083C16.0116 20.4588 16.6187 20.6294 17.1333 21.072C17.6699 21.5266 17.9899 22.2304 17.9899 22.9572C17.9899 23.6855 17.6699 24.4139 17.1333 24.8667ZM20.3052 26.7529H21.8552V19.1758H20.3054V26.7529H20.3052ZM25.6497 22.0823C24.7182 21.7535 24.444 21.5367 24.444 21.1292C24.444 20.6516 24.9321 20.2883 25.6012 20.2883C26.0663 20.2883 26.4479 20.47 26.8547 20.9004L27.6647 19.8908C26.9968 19.333 26.1979 19.0493 25.3263 19.0493C23.9202 19.0493 22.8459 19.9814 22.8459 21.2187C22.8459 22.2648 23.3465 22.7983 24.8021 23.2995C25.4107 23.5029 25.7201 23.6386 25.8756 23.7314C26.1856 23.9246 26.3414 24.1963 26.3414 24.5142C26.3414 25.1287 25.828 25.5825 25.1353 25.5825C24.3956 25.5825 23.7999 25.2306 23.4419 24.5718L22.4411 25.4931C23.1554 26.4915 24.0144 26.936 25.1964 26.936C26.8065 26.936 27.939 25.9121 27.939 24.4469C27.939 23.2424 27.4155 22.6966 25.6497 22.0823ZM28.4278 22.968C28.4278 25.1973 30.2653 26.9239 32.6276 26.9239C33.2955 26.9239 33.868 26.7981 34.5725 26.4812V24.7419C33.9514 25.3333 33.4025 25.5713 32.6984 25.5713C31.1363 25.5713 30.0263 24.4917 30.0263 22.9572C30.0263 21.5036 31.171 20.3559 32.6276 20.3559C33.366 20.3559 33.9275 20.6056 34.5725 21.2078V19.4687C33.8926 19.1403 33.3311 19.0049 32.6631 19.0049C30.3128 19.0049 28.4278 20.7663 28.4278 22.968ZM47.1438 24.2655L45.0205 19.1758H43.3266L46.7035 26.9465H47.5378L50.9736 19.1757H49.2923L47.1438 24.2655ZM51.679 26.753H56.0799V25.4702H53.2294V23.4236H55.9708V22.1406H53.2294V20.4587H56.0799V19.1759H51.6789V26.753H51.679ZM62.2214 21.412C62.2214 19.9925 61.197 19.1758 59.4066 19.1758H57.1042V26.7529H58.6564V23.7076H58.8596L61.0056 26.7529H62.9142L60.4076 23.5613C61.5783 23.3332 62.2214 22.5716 62.2214 21.412ZM59.1079 22.6633H58.6564V20.3673H59.1327C60.101 20.3673 60.6256 20.7547 60.6256 21.4921C60.6256 22.2528 60.101 22.6633 59.1079 22.6633Z" fill="#0B1015"/>
</g>
<defs>
<filter id="filter0_i_947_3340" x="35.1602" y="19.0342" width="11.4727" height="10.8896" filterUnits="userSpaceOnUse" color-interpolation-filters="sRGB">
<feFlood flood-opacity="0" result="BackgroundImageFix"/>
<feBlend mode="normal" in="SourceGraphic" in2="BackgroundImageFix" result="shape"/>
<feColorMatrix in="SourceAlpha" type="matrix" values="0 0 0 0 0 0 0 0 0 0 0 0 0 0 0 0 0 0 127 0" result="hardAlpha"/>
<feOffset dx="3" dy="3"/>
<feGaussianBlur stdDeviation="4"/>
<feComposite in2="hardAlpha" operator="arithmetic" k2="-1" k3="1"/>
<feColorMatrix type="matrix" values="0 0 0 0 0 0 0 0 0 0 0 0 0 0 0 0 0 0 0.5 0"/>
<feBlend mode="normal" in2="shape" result="effect1_innerShadow_947_3340"/>
</filter>
<linearGradient id="paint0_linear_947_3340" x1="199.652" y1="90.5408" x2="742.914" y2="692.903" gradientUnits="userSpaceOnUse">
<stop stop-color="#F34F26"/>
<stop offset="1" stop-color="#F69E35"/>
</linearGradient>
<linearGradient id="paint1_linear_947_3340" x1="199.652" y1="90.5408" x2="742.914" y2="692.903" gradientUnits="userSpaceOnUse">
<stop stop-color="#F34F26"/>
<stop offset="1" stop-color="#F69E35"/>
</linearGradient>
<clipPath id="clip0_947_3340">
<rect width="50" height="8" fill="white" transform="translate(13 19)"/>
</clipPath>
</defs>
</svg>
