<svg width="42" height="42" viewBox="0 0 42 42" fill="none" xmlns="http://www.w3.org/2000/svg">
<path d="M14.875 21.875L17.5156 24.5156C18.1171 25.1171 18.4179 25.4179 18.7597 25.5188C19.0599 25.6074 19.3811 25.5928 19.6721 25.4774C20.0033 25.346 20.2756 25.0192 20.8203 24.3657L28 15.75M28.5753 8.32747C29.8682 8.36436 31.1501 8.8762 32.1369 9.86301C33.1237 10.8498 33.6356 12.1317 33.6725 13.4246C33.709 14.7041 33.7272 15.3438 33.7648 15.4927C33.8452 15.8114 33.7518 15.5859 33.9203 15.8682C33.9991 16 34.4386 16.4653 35.3174 17.3958C36.2055 18.3361 36.75 19.6045 36.75 21C36.75 22.3955 36.2055 23.6639 35.3174 24.6042C34.4386 25.5347 33.9991 26 33.9203 26.1318C33.7518 26.4141 33.8452 26.1886 33.7648 26.5073C33.7272 26.6562 33.709 27.2959 33.6725 28.5754C33.6356 29.8683 33.1237 31.1502 32.1369 32.137C31.1501 33.1238 29.8682 33.6356 28.5753 33.6725C27.2959 33.709 26.6562 33.7273 26.5073 33.7648C26.1885 33.8452 26.414 33.7518 26.1318 33.9204C26 33.9991 25.5347 34.4386 24.6042 35.3174C23.6639 36.2055 22.3955 36.75 21 36.75C19.6045 36.75 18.3361 36.2055 17.3958 35.3174C16.4653 34.4385 16 33.9991 15.8682 33.9204C15.586 33.7518 15.8114 33.8452 15.4927 33.7648C15.3438 33.7273 14.7039 33.709 13.4246 33.6725C12.1317 33.6356 10.8498 33.1238 9.86295 32.137C8.87613 31.1502 8.36428 29.8683 8.3274 28.5753C8.29091 27.2959 8.27266 26.6562 8.23512 26.5073C8.15474 26.1885 8.24813 26.414 8.07959 26.1318C8.00086 25.9999 7.56143 25.5347 6.68258 24.6042C5.79448 23.6638 5.25 22.3955 5.25 21C5.25 19.6045 5.79448 18.3362 6.68258 17.3958C7.56143 16.4653 8.00086 16.0001 8.07959 15.8682C8.24813 15.586 8.15474 15.8115 8.23512 15.4927C8.27266 15.3438 8.29091 14.7041 8.3274 13.4247C8.36428 12.1317 8.87613 10.8498 9.86295 9.86301C10.8498 8.8762 12.1317 8.36435 13.4246 8.32747C14.7041 8.29097 15.3438 8.27272 15.4927 8.23517C15.8114 8.15479 15.5859 8.24818 15.8682 8.07964C16 8.00091 16.4653 7.56143 17.3958 6.68259C18.3361 5.79448 19.6045 5.25 21 5.25C22.3955 5.25 23.6639 5.79449 24.6042 6.68262C25.5347 7.56147 26 8.00089 26.1318 8.07963C26.414 8.24817 26.1885 8.15478 26.5073 8.23516C26.6562 8.27271 27.2959 8.29096 28.5753 8.32747Z" stroke="#219653" stroke-width="2" stroke-linecap="round" stroke-linejoin="round"/>
</svg>
