<svg width="42" height="42" viewBox="0 0 42 42" fill="none" xmlns="http://www.w3.org/2000/svg">
<path d="M8.75 28V35M10.5 7V14M12.25 31.5H5.25M14 10.5H7M22.75 7L25.8175 14.7776C26.1463 15.6115 26.3107 16.0284 26.5625 16.3799C26.7857 16.6915 27.0585 16.9643 27.3701 17.1875C27.7216 17.4393 28.1385 17.6037 28.9724 17.9325L36.75 21L28.9724 24.0675C28.1385 24.3963 27.7216 24.5607 27.3701 24.8125C27.0585 25.0357 26.7857 25.3085 26.5625 25.6201C26.3107 25.9716 26.1463 26.3885 25.8175 27.2224L22.75 35L19.6825 27.2224C19.3537 26.3886 19.1893 25.9716 18.9375 25.6201C18.7143 25.3085 18.4415 25.0357 18.1299 24.8125C17.7784 24.5607 17.3615 24.3963 16.5276 24.0675L8.75 21L16.5276 17.9325C17.3615 17.6037 17.7784 17.4393 18.1299 17.1875C18.4415 16.9643 18.7143 16.6915 18.9375 16.3799C19.1893 16.0284 19.3537 15.6115 19.6825 14.7777L22.75 7Z" stroke="#219653" stroke-width="2" stroke-linecap="round" stroke-linejoin="round"/>
</svg>
