<svg width="20" height="20" viewBox="0 0 20 20" fill="none" xmlns="http://www.w3.org/2000/svg">
<path d="M2.5 17.5H17.5M2.5 9.16667H17.5M10 9.16667V2.5M2.5 15H17.5M5 15V11.6667M8.33333 15V11.6667M11.6667 15V11.6667M15 15V11.6667M10 5.7V3.46667C10 3.42 10 3.39666 10.0091 3.37883C10.0171 3.36315 10.0298 3.35041 10.0455 3.34242C10.0633 3.33333 10.0867 3.33333 10.1333 3.33333H14.0333C14.08 3.33333 14.1033 3.33333 14.1212 3.34242C14.1368 3.35041 14.1496 3.36315 14.1576 3.37883C14.1667 3.39666 14.1667 3.42 14.1667 3.46667V5.7C14.1667 5.74667 14.1667 5.77001 14.1576 5.78783C14.1496 5.80351 14.1368 5.81626 14.1212 5.82425C14.1033 5.83333 14.08 5.83333 14.0333 5.83333H10.1333C10.0867 5.83333 10.0633 5.83333 10.0455 5.82425C10.0298 5.81626 10.0171 5.80351 10.0091 5.78783C10 5.77001 10 5.74667 10 5.7Z" stroke="#EFE33B" stroke-width="1.5" stroke-linecap="round" stroke-linejoin="round"/>
</svg>
