<svg width="25" height="25" viewBox="0 0 25 25" fill="none" xmlns="http://www.w3.org/2000/svg">
<path d="M10.4167 17.3527V19.7916C10.4167 20.9422 11.3494 21.875 12.5 21.875C13.6506 21.875 14.5833 20.9422 14.5833 19.7916V17.3527M12.5 3.125V4.16667M4.16667 12.5H3.125M5.83343 5.83344L5.20833 5.20833M18.75 5.83344L19.3753 5.20833M21.875 12.5H20.8333M17.7083 12.5C17.7083 15.3765 15.3765 17.7083 12.5 17.7083C9.62352 17.7083 7.29167 15.3765 7.29167 12.5C7.29167 9.62352 9.62352 7.29167 12.5 7.29167C15.3765 7.29167 17.7083 9.62352 17.7083 12.5Z" stroke="#219653" stroke-width="2" stroke-linecap="round" stroke-linejoin="round"/>
</svg>
