<svg width="29" height="29" viewBox="0 0 29 29" fill="none" xmlns="http://www.w3.org/2000/svg">
<path d="M3.65978 9.66699L10.251 14.0714C11.7984 15.1 12.5722 15.6143 13.4081 15.8141C14.1469 15.9908 14.917 15.9908 15.6558 15.8141C16.4917 15.6143 17.2655 15.1 18.8129 14.0714L25.3431 9.71539M9.425 22.9587H19.575C21.6052 22.9587 22.6203 22.9587 23.3957 22.5636C24.0778 22.216 24.6324 21.6615 24.9799 20.9794C25.375 20.2039 25.375 19.1888 25.375 17.1587V11.842C25.375 9.8118 25.375 8.79671 24.9799 8.02128C24.6324 7.33919 24.0778 6.78463 23.3957 6.43709C22.6203 6.04199 21.6052 6.04199 19.575 6.04199H9.425C7.39481 6.04199 6.37971 6.04199 5.60428 6.43709C4.9222 6.78463 4.36764 7.33919 4.0201 8.02128C3.625 8.79671 3.625 9.8118 3.625 11.842V17.1587C3.625 19.1888 3.625 20.2039 4.0201 20.9794C4.36764 21.6615 4.9222 22.216 5.60428 22.5636C6.37971 22.9587 7.39481 22.9587 9.425 22.9587Z" stroke="black" stroke-width="2" stroke-linecap="round" stroke-linejoin="round"/>
</svg>
