<svg width="33" height="26" viewBox="0 0 33 26" fill="none" xmlns="http://www.w3.org/2000/svg">
<g clip-path="url(#clip0_947_3116)">
<path d="M6.00158 25.8706V24.1498C6.00158 23.49 5.60532 23.0599 4.92611 23.0599C4.58657 23.0599 4.21868 23.1746 3.96396 23.5475C3.76596 23.232 3.48301 23.0599 3.05852 23.0599C2.77544 23.0599 2.49262 23.1459 2.26613 23.4614V23.1173H1.67188V25.8706H2.26613V24.3505C2.26613 23.863 2.52085 23.6335 2.91711 23.6335C3.31311 23.6335 3.51137 23.8916 3.51137 24.3505V25.8706H4.10563V24.3505C4.10563 23.863 4.38845 23.6335 4.75634 23.6335C5.1526 23.6335 5.3506 23.8916 5.3506 24.3505V25.8706H6.00158ZM14.8021 23.1173H13.8401V22.2855H13.2459V23.1173H12.7082V23.6621H13.2457V24.9242C13.2457 25.5552 13.5004 25.928 14.1796 25.928C14.4344 25.928 14.7172 25.842 14.9154 25.7273L14.7455 25.211C14.5758 25.3257 14.3778 25.3544 14.2362 25.3544C13.9533 25.3544 13.8401 25.1824 13.8401 24.8954V23.6621H14.8021V23.1173ZM19.8393 23.0598C19.4997 23.0598 19.2734 23.232 19.1318 23.4614V23.1173H18.5376V25.8706H19.1318V24.3219C19.1318 23.863 19.3298 23.6049 19.6977 23.6049C19.8109 23.6049 19.9525 23.6336 20.0656 23.6622L20.2354 23.0886C20.1222 23.0599 19.9525 23.0599 19.8393 23.0599V23.0598ZM12.2271 23.3467C11.944 23.1459 11.5479 23.0599 11.1234 23.0599C10.4443 23.0599 9.99161 23.404 9.99161 23.949C9.99161 24.408 10.3312 24.666 10.9254 24.7521L11.2084 24.7809C11.5197 24.8381 11.6894 24.9242 11.6894 25.0676C11.6894 25.2683 11.4631 25.4118 11.0668 25.4118C10.6707 25.4118 10.3594 25.2683 10.1613 25.125L9.87831 25.5839C10.1896 25.8133 10.6141 25.928 11.0385 25.928C11.8308 25.928 12.2837 25.5552 12.2837 25.0389C12.2837 24.5513 11.9158 24.2931 11.3498 24.2072L11.0668 24.1784C10.8121 24.1497 10.6141 24.0924 10.6141 23.9204C10.6141 23.7196 10.8121 23.6049 11.1234 23.6049C11.4631 23.6049 11.8026 23.7482 11.9724 23.8343L12.2271 23.3467ZM28.0175 23.0599C27.6778 23.0599 27.4515 23.232 27.3099 23.4614V23.1173H26.7157V25.8706H27.3099V24.3219C27.3099 23.863 27.508 23.6049 27.8758 23.6049C27.9891 23.6049 28.1307 23.6336 28.2438 23.6622L28.4136 23.0886C28.3004 23.0599 28.1307 23.0599 28.0175 23.0599ZM20.4335 24.4939C20.4335 25.3257 20.9994 25.928 21.8768 25.928C22.2729 25.928 22.5559 25.842 22.8388 25.6126L22.5559 25.125C22.3295 25.2971 22.1031 25.383 21.8484 25.383C21.3673 25.383 21.0278 25.0389 21.0278 24.4939C21.0278 23.9777 21.3673 23.6335 21.8484 23.6049C22.1031 23.6049 22.3295 23.6908 22.5559 23.863L22.8388 23.3754C22.5559 23.1459 22.2729 23.0599 21.8768 23.0599C20.9994 23.0599 20.4335 23.6622 20.4335 24.4939ZM25.9234 24.4939V23.1173H25.3291V23.4614C25.131 23.2034 24.8481 23.0599 24.4802 23.0599C23.7161 23.0599 23.1219 23.6622 23.1219 24.4939C23.1219 25.3257 23.7161 25.928 24.4802 25.928C24.8763 25.928 25.1594 25.7847 25.3291 25.5265V25.8706H25.9234V24.4939ZM23.7444 24.4939C23.7444 24.0063 24.0557 23.6049 24.565 23.6049C25.0461 23.6049 25.3857 23.9777 25.3857 24.4939C25.3857 24.9815 25.0461 25.383 24.565 25.383C24.0557 25.3543 23.7444 24.9815 23.7444 24.4939ZM16.6416 23.0599C15.8492 23.0599 15.2832 23.6335 15.2832 24.4939C15.2832 25.3544 15.8491 25.928 16.6699 25.928C17.066 25.928 17.4622 25.8133 17.7736 25.5552L17.4905 25.125C17.2641 25.2971 16.9812 25.4118 16.6982 25.4118C16.3303 25.4118 15.9624 25.2397 15.8775 24.752H17.8867V24.5227C17.9151 23.6335 17.4058 23.0599 16.6416 23.0599ZM16.6416 23.5761C17.0094 23.5761 17.2642 23.8057 17.3207 24.2359H15.9058C15.9624 23.863 16.2171 23.5761 16.6416 23.5761ZM31.3849 24.4939V22.0273H30.7906V23.4614C30.5925 23.2034 30.3096 23.0599 29.9417 23.0599C29.1776 23.0599 28.5834 23.6622 28.5834 24.4939C28.5834 25.3257 29.1776 25.928 29.9417 25.928C30.3379 25.928 30.6209 25.7847 30.7906 25.5265V25.8706H31.3849V24.4939ZM29.206 24.4939C29.206 24.0063 29.5172 23.6049 30.0266 23.6049C30.5077 23.6049 30.8472 23.9777 30.8472 24.4939C30.8472 24.9815 30.5077 25.383 30.0266 25.383C29.5172 25.3543 29.206 24.9815 29.206 24.4939ZM9.34064 24.4939V23.1173H8.74638V23.4614C8.54825 23.2034 8.2653 23.0599 7.8974 23.0599C7.13338 23.0599 6.53912 23.6622 6.53912 24.4939C6.53912 25.3257 7.13338 25.928 7.8974 25.928C8.29366 25.928 8.57661 25.7847 8.74638 25.5265V25.8706H9.34064V24.4939ZM7.13338 24.4939C7.13338 24.0063 7.44468 23.6049 7.95399 23.6049C8.43507 23.6049 8.77474 23.9777 8.77474 24.4939C8.77474 24.9815 8.43507 25.383 7.95399 25.383C7.44468 25.3543 7.13338 24.9815 7.13338 24.4939Z" fill="black"/>
<path d="M12.0273 2.20801H20.9412V18.4418H12.0273V2.20801Z" fill="#FF5F00"/>
<path d="M12.5927 10.3254C12.5927 7.02706 14.1208 4.10147 16.4694 2.20843C14.7434 0.831739 12.5645 0 10.1875 0C4.55593 0 0 4.61768 0 10.3254C0 16.033 4.55593 20.6508 10.1873 20.6508C12.5644 20.6508 14.7433 19.8191 16.4694 18.4422C14.1208 16.5779 12.5927 13.6237 12.5927 10.3254Z" fill="#EB001B"/>
<path d="M32.9655 10.3254C32.9655 16.033 28.4096 20.6508 22.7782 20.6508C20.4012 20.6508 18.2223 19.8191 16.4961 18.4422C18.8731 16.5493 20.3729 13.6237 20.3729 10.3254C20.3729 7.02706 18.8448 4.10147 16.4961 2.20843C18.2221 0.831739 20.4012 0 22.7782 0C28.4096 0 32.9655 4.64642 32.9655 10.3254Z" fill="#F79E1B"/>
</g>
<defs>
<clipPath id="clip0_947_3116">
<rect width="33" height="26" fill="white"/>
</clipPath>
</defs>
</svg>
