<svg width="77" height="46" viewBox="0 0 77 46" fill="none" xmlns="http://www.w3.org/2000/svg">
<rect width="77" height="46" rx="5" fill="#FFFFFB"/>
<g clip-path="url(#clip0_947_3342)">
<path d="M28.0016 35.8706V34.1498C28.0016 33.49 27.6053 33.0599 26.9261 33.0599C26.5866 33.0599 26.2187 33.1746 25.964 33.5475C25.766 33.232 25.483 33.0599 25.0585 33.0599C24.7754 33.0599 24.4926 33.1459 24.2661 33.4614V33.1173H23.6719V35.8706H24.2661V34.3505C24.2661 33.863 24.5209 33.6335 24.9171 33.6335C25.3131 33.6335 25.5114 33.8916 25.5114 34.3505V35.8706H26.1056V34.3505C26.1056 33.863 26.3884 33.6335 26.7563 33.6335C27.1526 33.6335 27.3506 33.8916 27.3506 34.3505V35.8706H28.0016ZM36.8021 33.1173H35.8401V32.2855H35.2459V33.1173H34.7082V33.6621H35.2457V34.9242C35.2457 35.5552 35.5004 35.928 36.1796 35.928C36.4344 35.928 36.7172 35.842 36.9154 35.7273L36.7455 35.211C36.5758 35.3257 36.3778 35.3544 36.2362 35.3544C35.9533 35.3544 35.8401 35.1824 35.8401 34.8954V33.6621H36.8021V33.1173ZM41.8393 33.0598C41.4997 33.0598 41.2734 33.232 41.1318 33.4614V33.1173H40.5376V35.8706H41.1318V34.3219C41.1318 33.863 41.3298 33.6049 41.6977 33.6049C41.8109 33.6049 41.9525 33.6336 42.0656 33.6622L42.2354 33.0886C42.1222 33.0599 41.9525 33.0599 41.8393 33.0599V33.0598ZM34.2271 33.3467C33.944 33.1459 33.5479 33.0599 33.1234 33.0599C32.4443 33.0599 31.9916 33.404 31.9916 33.949C31.9916 34.408 32.3312 34.666 32.9254 34.7521L33.2084 34.7809C33.5197 34.8381 33.6894 34.9242 33.6894 35.0676C33.6894 35.2683 33.4631 35.4118 33.0668 35.4118C32.6707 35.4118 32.3594 35.2683 32.1613 35.125L31.8783 35.5839C32.1896 35.8133 32.6141 35.928 33.0385 35.928C33.8308 35.928 34.2837 35.5552 34.2837 35.0389C34.2837 34.5513 33.9158 34.2931 33.3498 34.2072L33.0668 34.1784C32.8121 34.1497 32.6141 34.0924 32.6141 33.9204C32.6141 33.7196 32.8121 33.6049 33.1234 33.6049C33.4631 33.6049 33.8026 33.7482 33.9724 33.8343L34.2271 33.3467ZM50.0175 33.0599C49.6778 33.0599 49.4515 33.232 49.3099 33.4614V33.1173H48.7157V35.8706H49.3099V34.3219C49.3099 33.863 49.508 33.6049 49.8758 33.6049C49.9891 33.6049 50.1307 33.6336 50.2438 33.6622L50.4136 33.0886C50.3004 33.0599 50.1307 33.0599 50.0175 33.0599ZM42.4335 34.4939C42.4335 35.3257 42.9994 35.928 43.8768 35.928C44.2729 35.928 44.5559 35.842 44.8388 35.6126L44.5559 35.125C44.3295 35.2971 44.1031 35.383 43.8484 35.383C43.3673 35.383 43.0278 35.0389 43.0278 34.4939C43.0278 33.9777 43.3673 33.6335 43.8484 33.6049C44.1031 33.6049 44.3295 33.6908 44.5559 33.863L44.8388 33.3754C44.5559 33.1459 44.2729 33.0599 43.8768 33.0599C42.9994 33.0599 42.4335 33.6622 42.4335 34.4939ZM47.9234 34.4939V33.1173H47.3291V33.4614C47.131 33.2034 46.8481 33.0599 46.4802 33.0599C45.7161 33.0599 45.1219 33.6622 45.1219 34.4939C45.1219 35.3257 45.7161 35.928 46.4802 35.928C46.8763 35.928 47.1594 35.7847 47.3291 35.5265V35.8706H47.9234V34.4939ZM45.7444 34.4939C45.7444 34.0063 46.0557 33.6049 46.565 33.6049C47.0461 33.6049 47.3857 33.9777 47.3857 34.4939C47.3857 34.9815 47.0461 35.383 46.565 35.383C46.0557 35.3543 45.7444 34.9815 45.7444 34.4939ZM38.6416 33.0599C37.8492 33.0599 37.2832 33.6335 37.2832 34.4939C37.2832 35.3544 37.8491 35.928 38.6699 35.928C39.066 35.928 39.4622 35.8133 39.7736 35.5552L39.4905 35.125C39.2641 35.2971 38.9812 35.4118 38.6982 35.4118C38.3303 35.4118 37.9624 35.2397 37.8775 34.752H39.8867V34.5227C39.9151 33.6335 39.4058 33.0599 38.6416 33.0599ZM38.6416 33.5761C39.0094 33.5761 39.2642 33.8057 39.3207 34.2359H37.9058C37.9624 33.863 38.2171 33.5761 38.6416 33.5761ZM53.3849 34.4939V32.0273H52.7906V33.4614C52.5925 33.2034 52.3096 33.0599 51.9417 33.0599C51.1776 33.0599 50.5834 33.6622 50.5834 34.4939C50.5834 35.3257 51.1776 35.928 51.9417 35.928C52.3379 35.928 52.6209 35.7847 52.7906 35.5265V35.8706H53.3849V34.4939ZM51.206 34.4939C51.206 34.0063 51.5172 33.6049 52.0266 33.6049C52.5077 33.6049 52.8472 33.9777 52.8472 34.4939C52.8472 34.9815 52.5077 35.383 52.0266 35.383C51.5172 35.3543 51.206 34.9815 51.206 34.4939ZM31.3406 34.4939V33.1173H30.7464V33.4614C30.5483 33.2034 30.2653 33.0599 29.8974 33.0599C29.1334 33.0599 28.5391 33.6622 28.5391 34.4939C28.5391 35.3257 29.1334 35.928 29.8974 35.928C30.2937 35.928 30.5766 35.7847 30.7464 35.5265V35.8706H31.3406V34.4939ZM29.1334 34.4939C29.1334 34.0063 29.4447 33.6049 29.954 33.6049C30.4351 33.6049 30.7747 33.9777 30.7747 34.4939C30.7747 34.9815 30.4351 35.383 29.954 35.383C29.4447 35.3543 29.1334 34.9815 29.1334 34.4939Z" fill="black"/>
<path d="M34.0273 12.208H42.9412V28.4418H34.0273V12.208Z" fill="#FF5F00"/>
<path d="M34.5927 20.3254C34.5927 17.0271 36.1208 14.1015 38.4694 12.2084C36.7434 10.8317 34.5645 10 32.1875 10C26.5559 10 22 14.6177 22 20.3254C22 26.033 26.5559 30.6508 32.1873 30.6508C34.5644 30.6508 36.7433 29.8191 38.4694 28.4422C36.1208 26.5779 34.5927 23.6237 34.5927 20.3254Z" fill="#EB001B"/>
<path d="M54.9655 20.3254C54.9655 26.033 50.4096 30.6508 44.7782 30.6508C42.4012 30.6508 40.2223 29.8191 38.4961 28.4422C40.8731 26.5493 42.3729 23.6237 42.3729 20.3254C42.3729 17.0271 40.8448 14.1015 38.4961 12.2084C40.2221 10.8317 42.4012 10 44.7782 10C50.4096 10 54.9655 14.6464 54.9655 20.3254Z" fill="#F79E1B"/>
</g>
<defs>
<clipPath id="clip0_947_3342">
<rect width="33" height="26" fill="white" transform="translate(22 10)"/>
</clipPath>
</defs>
</svg>
