<svg width="26" height="26" viewBox="0 0 26 26" fill="none" xmlns="http://www.w3.org/2000/svg">
<path d="M10.8307 16.2493L16.4532 12.9993L10.8307 9.74935V16.2493ZM23.3541 7.76685C23.4949 8.27602 23.5924 8.95852 23.6574 9.82518C23.7332 10.6918 23.7657 11.4393 23.7657 12.0893L23.8307 12.9993C23.8307 15.3718 23.6574 17.116 23.3541 18.2318C23.0832 19.2068 22.4549 19.8352 21.4799 20.106C20.9707 20.2468 20.0391 20.3443 18.6091 20.4093C17.2007 20.4852 15.9116 20.5177 14.7199 20.5177L12.9974 20.5827C8.45823 20.5827 5.63073 20.4093 4.5149 20.106C3.5399 19.8352 2.91156 19.2068 2.64073 18.2318C2.4999 17.7227 2.4024 17.0402 2.3374 16.1735C2.26156 15.3068 2.22906 14.5593 2.22906 13.9093L2.16406 12.9993C2.16406 10.6268 2.3374 8.88268 2.64073 7.76685C2.91156 6.79185 3.5399 6.16352 4.5149 5.89268C5.02406 5.75185 5.95573 5.65435 7.38573 5.58935C8.79406 5.51352 10.0832 5.48102 11.2749 5.48102L12.9974 5.41602C17.5366 5.41602 20.3641 5.58935 21.4799 5.89268C22.4549 6.16352 23.0832 6.79185 23.3541 7.76685Z" fill="black"/>
</svg>
