<svg width="69" height="68" viewBox="0 0 69 68" fill="none" xmlns="http://www.w3.org/2000/svg">
<circle cx="34.5" cy="34" r="34" fill="#EFE33B"/>
<path d="M26.6667 29H43.3333M26.6667 35.6667H35M50 47.3334L44.4594 44.5631C44.0395 44.3531 43.8295 44.2481 43.6094 44.174C43.4139 44.1083 43.2128 44.0608 43.0086 44.0322C42.7786 44 42.5439 44 42.0743 44H28C25.1997 44 23.7996 44 22.73 43.4551C21.7892 42.9757 21.0243 42.2108 20.545 41.27C20 40.2004 20 38.8003 20 36V28.6667C20 25.8664 20 24.4663 20.545 23.3967C21.0243 22.4559 21.7892 21.691 22.73 21.2117C23.7996 20.6667 25.1997 20.6667 28 20.6667H42C44.8003 20.6667 46.2004 20.6667 47.27 21.2117C48.2108 21.691 48.9757 22.4559 49.455 23.3967C50 24.4663 50 25.8664 50 28.6667V47.3334Z" stroke="#131A29" stroke-width="2" stroke-linecap="round" stroke-linejoin="round"/>
</svg>
