<svg width="20" height="21" viewBox="0 0 20 21" fill="none" xmlns="http://www.w3.org/2000/svg">
<g clip-path="url(#clip0_696_3721)">
<path fill-rule="evenodd" clip-rule="evenodd" d="M10.5883 14.0141C10.432 14.1703 10.2201 14.2581 9.99915 14.2581C9.77818 14.2581 9.56625 14.1703 9.40998 14.0141L4.69581 9.29993C4.61622 9.22306 4.55274 9.1311 4.50906 9.02943C4.46539 8.92776 4.4424 8.81841 4.44144 8.70776C4.44048 8.59711 4.46156 8.48738 4.50346 8.38497C4.54536 8.28255 4.60724 8.18951 4.68548 8.11127C4.76373 8.03302 4.85677 7.97114 4.95918 7.92924C5.0616 7.88734 5.17133 7.86626 5.28198 7.86722C5.39263 7.86818 5.50198 7.89117 5.60365 7.93484C5.70532 7.97852 5.79727 8.042 5.87415 8.12159L9.99915 12.2466L14.1241 8.12159C14.2813 7.9698 14.4918 7.8858 14.7103 7.8877C14.9288 7.8896 15.1378 7.97724 15.2923 8.13175C15.4468 8.28625 15.5345 8.49526 15.5364 8.71376C15.5383 8.93226 15.4543 9.14276 15.3025 9.29993L10.5883 14.0141Z" fill="black"/>
</g>
<defs>
<clipPath id="clip0_696_3721">
<rect width="20" height="20" fill="white" transform="translate(0 0.924805)"/>
</clipPath>
</defs>
</svg>
