<svg width="19" height="23" viewBox="0 0 19 23" fill="none" xmlns="http://www.w3.org/2000/svg">
<g clip-path="url(#clip0_947_3129)">
<path d="M16.1153 1.79062C15.0812 0.581066 13.2118 0.0625 10.8202 0.0625H3.87927C3.64265 0.062509 3.41379 0.149134 3.23384 0.3068C3.0539 0.464467 2.93466 0.682833 2.89758 0.922639L0.0074998 19.7314C-0.0499455 20.1023 0.229933 20.4381 0.596277 20.4381H4.88137L5.95754 13.4337L5.92415 13.6531C6.00081 13.158 6.41347 12.7928 6.90213 12.7928H8.93839C12.9386 12.7928 16.0709 11.1255 16.9859 6.30243C17.013 6.15978 17.0365 6.02095 17.0569 5.88531C16.9414 5.82255 16.9414 5.82255 17.0569 5.88531C17.3293 4.10266 17.055 2.88922 16.1153 1.79062Z" fill="#27346A"/>
<path d="M7.59718 5.24314C7.71433 5.1859 7.84246 5.15623 7.97221 5.15631H13.4138C14.0581 5.15631 14.6592 5.19934 15.2084 5.29005C15.3621 5.31519 15.515 5.34522 15.6668 5.38007C15.8821 5.42881 16.0949 5.48847 16.3044 5.55881C16.5744 5.65135 16.8258 5.75911 17.057 5.88531C17.3293 4.10197 17.055 2.88922 16.1153 1.79062C15.0806 0.581066 13.2118 0.0625 10.8202 0.0625H3.87868C3.38995 0.0625 2.97417 0.427606 2.89758 0.922639L0.00750021 19.7307C-0.0499451 20.1022 0.229934 20.4376 0.595684 20.4376H4.88137L7.11409 5.90876C7.13605 5.76596 7.19149 5.63076 7.27564 5.51481C7.35979 5.39886 7.47014 5.30563 7.59718 5.24314Z" fill="#27346A"/>
<path d="M16.989 6.30189C16.074 11.1243 12.9419 12.7922 8.94155 12.7922H6.90469C6.41603 12.7922 6.0033 13.1574 5.92737 13.6525L4.58854 22.3617C4.53852 22.6863 4.78314 22.9804 5.10317 22.9804H8.7154C8.92232 22.9803 9.12243 22.9045 9.27975 22.7666C9.43706 22.6287 9.54125 22.4377 9.57359 22.2279L9.60877 22.0391L10.2896 17.6115L10.3334 17.3668C10.3658 17.1571 10.47 16.9661 10.6273 16.8282C10.7846 16.6902 10.9847 16.6144 11.1916 16.6143H11.7322C15.2314 16.6143 17.9713 15.1556 18.772 10.9367C19.1062 9.17361 18.9332 7.70161 18.0492 6.66768C17.781 6.35451 17.448 6.09588 17.06 5.88477C17.039 6.02109 17.0162 6.15924 16.989 6.30189Z" fill="#2790C3"/>
<path d="M16.1043 5.49356C15.9616 5.45081 15.8176 5.41297 15.6725 5.38008C15.5205 5.3458 15.3676 5.31598 15.214 5.29067C14.6642 5.19936 14.0636 5.15625 13.4187 5.15625H7.97775C7.84791 5.15595 7.71968 5.18587 7.60273 5.24376C7.47554 5.30606 7.36507 5.39924 7.28088 5.51522C7.19669 5.63121 7.14132 5.7665 7.11956 5.90939L5.96309 13.4337L5.92969 13.6531C6.00576 13.158 6.41842 12.7928 6.90715 12.7928H8.94401C12.9442 12.7928 16.0764 11.1255 16.9914 6.30244C17.0186 6.1598 17.0415 6.02157 17.0625 5.88532C16.8308 5.75981 16.58 5.65136 16.3099 5.55944C16.2418 5.53625 16.1732 5.51429 16.1043 5.49356" fill="#1F264F"/>
</g>
<defs>
<clipPath id="clip0_947_3129">
<rect width="19" height="23" fill="white"/>
</clipPath>
</defs>
</svg>
