<svg width="78" height="46" viewBox="0 0 78 46" fill="none" xmlns="http://www.w3.org/2000/svg">
<rect width="78" height="46" rx="5" fill="#FFFFFB"/>
<g clip-path="url(#clip0_947_3341)">
<path d="M45.1153 13.7906C44.0812 12.5811 42.2118 12.0625 39.8202 12.0625H32.8793C32.6426 12.0625 32.4138 12.1491 32.2338 12.3068C32.0539 12.4645 31.9347 12.6828 31.8976 12.9226L29.0075 31.7314C28.9501 32.1023 29.2299 32.4381 29.5963 32.4381H33.8814L34.9575 25.4337L34.9241 25.6531C35.0008 25.158 35.4135 24.7928 35.9021 24.7928H37.9384C41.9386 24.7928 45.0709 23.1255 45.9859 18.3024C46.013 18.1598 46.0365 18.0209 46.0569 17.8853C45.9414 17.8226 45.9414 17.8226 46.0569 17.8853C46.3293 16.1027 46.055 14.8892 45.1153 13.7906Z" fill="#27346A"/>
<path d="M36.5972 17.2431C36.7143 17.1859 36.8425 17.1562 36.9722 17.1563H42.4138C43.0581 17.1563 43.6592 17.1993 44.2084 17.29C44.3621 17.3152 44.515 17.3452 44.6668 17.3801C44.8821 17.4288 45.0949 17.4885 45.3044 17.5588C45.5744 17.6513 45.8258 17.7591 46.057 17.8853C46.3293 16.102 46.055 14.8892 45.1153 13.7906C44.0806 12.5811 42.2118 12.0625 39.8202 12.0625H32.8787C32.3899 12.0625 31.9742 12.4276 31.8976 12.9226L29.0075 31.7307C28.9501 32.1022 29.2299 32.4376 29.5957 32.4376H33.8814L36.1141 17.9088C36.136 17.766 36.1915 17.6308 36.2756 17.5148C36.3598 17.3989 36.4701 17.3056 36.5972 17.2431Z" fill="#27346A"/>
<path d="M45.989 18.3019C45.074 23.1243 41.9419 24.7922 37.9415 24.7922H35.9047C35.416 24.7922 35.0033 25.1574 34.9274 25.6525L33.5885 34.3617C33.5385 34.6863 33.7831 34.9804 34.1032 34.9804H37.7154C37.9223 34.9803 38.1224 34.9045 38.2797 34.7666C38.4371 34.6287 38.5413 34.4377 38.5736 34.2279L38.6088 34.0391L39.2896 29.6115L39.3334 29.3668C39.3658 29.1571 39.47 28.9661 39.6273 28.8282C39.7846 28.6902 39.9847 28.6144 40.1916 28.6143H40.7322C44.2314 28.6143 46.9713 27.1556 47.772 22.9367C48.1062 21.1736 47.9332 19.7016 47.0492 18.6677C46.781 18.3545 46.448 18.0959 46.06 17.8848C46.039 18.0211 46.0162 18.1592 45.989 18.3019Z" fill="#2790C3"/>
<path d="M45.1043 17.4936C44.9616 17.4508 44.8176 17.413 44.6725 17.3801C44.5205 17.3458 44.3676 17.316 44.214 17.2907C43.6642 17.1994 43.0636 17.1563 42.4187 17.1563H36.9778C36.8479 17.156 36.7197 17.1859 36.6027 17.2438C36.4755 17.3061 36.3651 17.3992 36.2809 17.5152C36.1967 17.6312 36.1413 17.7665 36.1196 17.9094L34.9631 25.4337L34.9297 25.6531C35.0058 25.158 35.4184 24.7928 35.9071 24.7928H37.944C41.9442 24.7928 45.0764 23.1255 45.9914 18.3024C46.0186 18.1598 46.0415 18.0216 46.0625 17.8853C45.8308 17.7598 45.58 17.6514 45.3099 17.5594C45.2418 17.5363 45.1732 17.5143 45.1043 17.4936" fill="#1F264F"/>
</g>
<defs>
<clipPath id="clip0_947_3341">
<rect width="19" height="23" fill="white" transform="translate(29 12)"/>
</clipPath>
</defs>
</svg>
