<svg width="102" height="102" viewBox="0 0 102 102" fill="none" xmlns="http://www.w3.org/2000/svg">
<circle cx="51" cy="51" r="51" fill="#EFE33B"/>
<path d="M68.2917 48.211C69.9132 49.123 70.7239 49.5791 70.994 50.1783C71.2294 50.7008 71.2294 51.2992 70.994 51.8217C70.7239 52.4209 69.9132 52.877 68.2917 53.789L42.0188 68.5675C40.4512 69.4493 39.6674 69.8902 39.0253 69.8176C38.4652 69.7543 37.9578 69.4576 37.628 69.0004C37.25 68.4764 37.25 67.5771 37.25 65.7785V36.2215C37.25 34.4229 37.25 33.5236 37.628 32.9996C37.9578 32.5424 38.4652 32.2457 39.0253 32.1824C39.6674 32.1098 40.4512 32.5507 42.0188 33.4325L68.2917 48.211Z" fill="#131A29"/>
</svg>
