<svg width="8" height="9" viewBox="0 0 8 9" fill="none" xmlns="http://www.w3.org/2000/svg">
<path d="M3.99456 8.864C3.22656 8.864 2.53856 8.688 1.93056 8.336C1.33856 7.968 0.874563 7.48 0.538563 6.872C0.202563 6.264 0.0345626 5.6 0.0345626 4.88C0.0345626 4.16 0.202563 3.504 0.538563 2.912C0.874563 2.304 1.33856 1.824 1.93056 1.472C2.53856 1.12 3.22656 0.943999 3.99456 0.943999C4.74656 0.943999 5.41856 1.12 6.01056 1.472C6.61856 1.824 7.09056 2.304 7.42656 2.912C7.77856 3.504 7.95456 4.16 7.95456 4.88C7.95456 5.616 7.77856 6.288 7.42656 6.896C7.09056 7.488 6.61856 7.968 6.01056 8.336C5.41856 8.688 4.74656 8.864 3.99456 8.864Z" fill="#EB001B"/>
</svg>
