<svg width="42" height="42" viewBox="0 0 42 42" fill="none" xmlns="http://www.w3.org/2000/svg">
<path d="M20.125 15.7499L17.5 20.9999H24.5L21.875 26.2499M35 20.9999C35 28.8068 25.4451 34.4639 22.1225 36.1951C21.7631 36.3824 21.5834 36.476 21.3342 36.5245C21.14 36.5622 20.86 36.5622 20.6658 36.5245C20.4166 36.476 20.2369 36.3824 19.8775 36.1951C16.5549 34.4639 7 28.8068 7 20.9999V14.3807C7 12.9816 7 12.282 7.22883 11.6806C7.43098 11.1494 7.75947 10.6754 8.1859 10.2996C8.66862 9.87416 9.32365 9.62853 10.6337 9.13726L20.0169 5.61858C20.3807 5.48214 20.5626 5.41393 20.7497 5.38689C20.9157 5.3629 21.0843 5.3629 21.2503 5.38689C21.4374 5.41393 21.6193 5.48214 21.9831 5.61858L31.3663 9.13726C32.6764 9.62853 33.3314 9.87416 33.8141 10.2996C34.2405 10.6754 34.569 11.1494 34.7712 11.6806C35 12.282 35 12.9816 35 14.3807V20.9999Z" stroke="#219653" stroke-width="2" stroke-linecap="round" stroke-linejoin="round"/>
</svg>
