<svg width="31" height="30" viewBox="0 0 31 30" fill="none" xmlns="http://www.w3.org/2000/svg">
<path d="M25.6038 13.125L27.1076 14.0262C27.2003 14.0817 27.277 14.1603 27.3303 14.2543C27.3835 14.3483 27.4115 14.4545 27.4115 14.5625C27.4115 14.6705 27.3835 14.7767 27.3303 14.8707C27.277 14.9647 27.2003 15.0433 27.1076 15.0987L15.5001 22.0612L3.89381 15.0987C3.80112 15.0433 3.72439 14.9647 3.67112 14.8707C3.61785 14.7767 3.58984 14.6705 3.58984 14.5625C3.58984 14.4545 3.61785 14.3483 3.67112 14.2543C3.72439 14.1603 3.80112 14.0817 3.89381 14.0262L5.39631 13.125L15.5001 19.1875L25.6038 13.125ZM25.6038 19L27.1076 19.9012C27.2003 19.9567 27.277 20.0353 27.3303 20.1293C27.3835 20.2233 27.4115 20.3295 27.4115 20.4375C27.4115 20.5455 27.3835 20.6517 27.3303 20.7457C27.277 20.8397 27.2003 20.9183 27.1076 20.9737L16.1426 27.5512C15.9484 27.6676 15.7264 27.729 15.5001 27.729C15.2738 27.729 15.0517 27.6676 14.8576 27.5512L3.89381 20.975C3.80112 20.9195 3.72439 20.8409 3.67112 20.747C3.61785 20.653 3.58984 20.5468 3.58984 20.4387C3.58984 20.3307 3.61785 20.2245 3.67112 20.1305C3.72439 20.0366 3.80112 19.958 3.89381 19.9025L5.39631 19.0012L15.5001 25.0625L25.6038 19ZM16.1438 1.63625L27.1063 8.21375C27.199 8.26924 27.2757 8.34781 27.329 8.44179C27.3823 8.53578 27.4103 8.64196 27.4103 8.75C27.4103 8.85803 27.3823 8.96422 27.329 9.0582C27.2757 9.15219 27.199 9.23076 27.1063 9.28625L15.5001 16.2487L3.89381 9.2875C3.80112 9.23201 3.72439 9.15344 3.67112 9.05945C3.61785 8.96547 3.58984 8.85928 3.58984 8.75125C3.58984 8.64321 3.61785 8.53703 3.67112 8.44304C3.72439 8.34906 3.80112 8.27049 3.89381 8.215L14.8563 1.6375C15.0507 1.52069 15.2733 1.45898 15.5001 1.45898C15.7269 1.45898 15.9494 1.51944 16.1438 1.63625Z" fill="black"/>
</svg>
