<svg width="20" height="20" viewBox="0 0 20 20" fill="none" xmlns="http://www.w3.org/2000/svg">
<path d="M15.4173 15.0007C15.4173 15.9211 14.6711 16.6673 13.7507 16.6673C12.8302 16.6673 12.084 15.9211 12.084 15.0007M15.4173 15.0007C15.4173 14.0802 14.6711 13.334 13.7507 13.334C12.8302 13.334 12.084 14.0802 12.084 15.0007M15.4173 15.0007H17.9173M12.084 15.0007H11.2507M7.08398 15.0007C7.08398 15.9211 6.33779 16.6673 5.41732 16.6673C4.49684 16.6673 3.75065 15.9211 3.75065 15.0007M7.08398 15.0007C7.08398 14.0802 6.33779 13.334 5.41732 13.334C4.49684 13.334 3.75065 14.0802 3.75065 15.0007M7.08398 15.0007H11.2507M3.75065 15.0007C2.83018 15.0007 2.08398 14.2545 2.08398 13.334V6.00065C2.08398 5.06723 2.08398 4.60052 2.26564 4.244C2.42543 3.9304 2.6804 3.67543 2.994 3.51564C3.35052 3.33398 3.81723 3.33398 4.75065 3.33398H8.58398C9.51741 3.33398 9.98412 3.33398 10.3406 3.51564C10.6542 3.67543 10.9092 3.9304 11.069 4.244C11.2507 4.60052 11.2507 5.06723 11.2507 6.00065V15.0007M11.2507 15.0007V6.66732H14.584L17.084 10.0007M17.084 10.0007V15.0007M17.084 10.0007H11.2507" stroke="#EFE33B" stroke-width="1.5" stroke-linecap="round" stroke-linejoin="round"/>
</svg>
