<svg width="69" height="68" viewBox="0 0 69 68" fill="none" xmlns="http://www.w3.org/2000/svg">
<circle cx="34.5" cy="34" r="34" fill="#EFE33B"/>
<path d="M45.8307 44.0001C45.8307 45.841 44.3383 47.3334 42.4974 47.3334C40.6564 47.3334 39.1641 45.841 39.1641 44.0001M45.8307 44.0001C45.8307 42.1591 44.3383 40.6667 42.4974 40.6667C40.6564 40.6667 39.1641 42.1591 39.1641 44.0001M45.8307 44.0001H50.8307M39.1641 44.0001H37.4974M29.1641 44.0001C29.1641 45.841 27.6717 47.3334 25.8307 47.3334C23.9898 47.3334 22.4974 45.841 22.4974 44.0001M29.1641 44.0001C29.1641 42.1591 27.6717 40.6667 25.8307 40.6667C23.9898 40.6667 22.4974 42.1591 22.4974 44.0001M29.1641 44.0001H37.4974M22.4974 44.0001C20.6564 44.0001 19.1641 42.5077 19.1641 40.6667V26.0001C19.1641 24.1332 19.1641 23.1998 19.5274 22.4868C19.847 21.8596 20.3569 21.3496 20.9841 21.0301C21.6971 20.6667 22.6306 20.6667 24.4974 20.6667H32.1641C34.0309 20.6667 34.9643 20.6667 35.6774 21.0301C36.3046 21.3496 36.8145 21.8596 37.1341 22.4868C37.4974 23.1998 37.4974 24.1332 37.4974 26.0001V44.0001M37.4974 44.0001V27.3334H44.1641L49.1641 34.0001M49.1641 34.0001V44.0001M49.1641 34.0001H37.4974" stroke="black" stroke-width="2" stroke-linecap="round" stroke-linejoin="round"/>
</svg>
