<svg width="25" height="25" viewBox="0 0 25 25" fill="none" xmlns="http://www.w3.org/2000/svg">
<path d="M3.125 21.875C3.125 17.8479 6.38959 14.5833 10.4167 14.5833C10.7703 14.5833 11.1181 14.6085 11.4583 14.6572M18.2267 16.8874C17.4977 16.0758 16.2822 15.8575 15.3689 16.6007C14.4556 17.3439 14.327 18.5864 15.0442 19.4654C15.4492 19.9617 16.4112 20.8316 17.1723 21.4951C17.5332 21.8098 17.7137 21.9671 17.932 22.0315C18.1181 22.0864 18.3352 22.0864 18.5214 22.0315C18.7397 21.9671 18.9201 21.8098 19.2811 21.4951C20.0421 20.8316 21.0042 19.9617 21.4091 19.4654C22.1263 18.5864 22.0134 17.3361 21.0844 16.6007C20.1554 15.8653 18.9556 16.0758 18.2267 16.8874ZM14.5833 7.29167C14.5833 9.59285 12.7179 11.4583 10.4167 11.4583C8.11548 11.4583 6.25 9.59285 6.25 7.29167C6.25 4.99048 8.11548 3.125 10.4167 3.125C12.7179 3.125 14.5833 4.99048 14.5833 7.29167Z" stroke="#219653" stroke-width="2" stroke-linecap="round" stroke-linejoin="round"/>
</svg>
