<svg width="78" height="46" viewBox="0 0 78 46" fill="none" xmlns="http://www.w3.org/2000/svg">
<rect width="78" height="46" rx="5" fill="#FFFFFB"/>
<g clip-path="url(#clip0_947_3343)">
<path d="M39.7901 20.7766C39.7639 22.8578 41.6342 24.0191 43.0431 24.7096C44.4907 25.4181 44.9769 25.8724 44.9712 26.506C44.9604 27.4756 43.8165 27.9036 42.7461 27.9202C40.8786 27.9493 39.7928 27.4131 38.9296 27.0075L38.2568 30.1736C39.1229 30.575 40.7266 30.9251 42.3896 30.9404C46.2933 30.9404 48.8472 29.0024 48.8611 25.9975C48.8763 22.1839 43.6164 21.9728 43.6523 20.2682C43.6647 19.7513 44.1551 19.1998 45.2296 19.0595C45.7615 18.9887 47.2297 18.9345 48.8943 19.7054L49.5477 16.6422C48.6525 16.3143 47.5019 16.0004 46.0694 16.0004C42.3952 16.0004 39.8109 17.9649 39.7901 20.7766ZM55.8256 16.2643C55.1128 16.2643 54.5121 16.6825 54.244 17.3242L48.6677 30.7154H52.5686L53.3448 28.5578H58.1116L58.5619 30.7154H62L58.9998 16.2643H55.8256ZM56.3713 20.1681L57.497 25.5946H54.414L56.3713 20.1681ZM35.0605 16.2645L31.9857 30.7152H35.7029L38.7763 16.2641H35.0605M29.5616 16.2641L25.6925 26.1003L24.1274 17.737C23.9438 16.8034 23.2186 16.2643 22.4132 16.2643H16.0886L16 16.6839C17.2984 16.9673 18.7737 17.4243 19.6674 17.9134C20.2144 18.2121 20.3704 18.4733 20.55 19.1831L23.5144 30.7154H27.4425L33.4649 16.2643L29.5616 16.2641Z" fill="url(#paint0_linear_947_3343)"/>
</g>
<defs>
<linearGradient id="paint0_linear_947_3343" x1="2130.8" y1="60.9101" x2="2174.3" y2="-1473.44" gradientUnits="userSpaceOnUse">
<stop stop-color="#222357"/>
<stop offset="1" stop-color="#254AA5"/>
</linearGradient>
<clipPath id="clip0_947_3343">
<rect width="46" height="15" fill="white" transform="translate(16 16)"/>
</clipPath>
</defs>
</svg>
