<svg width="46" height="15" viewBox="0 0 46 15" fill="none" xmlns="http://www.w3.org/2000/svg">
<g clip-path="url(#clip0_947_3121)">
<path d="M23.7901 4.77657C23.7639 6.85778 25.6342 8.0191 27.0431 8.70965C28.4907 9.41808 28.9769 9.87242 28.9712 10.506C28.9604 11.4756 27.8165 11.9036 26.7461 11.9202C24.8786 11.9493 23.7928 11.4131 22.9296 11.0075L22.2568 14.1736C23.1229 14.575 24.7266 14.9251 26.3896 14.9404C30.2933 14.9404 32.8472 13.0024 32.8611 9.99748C32.8763 6.18386 27.6164 5.97278 27.6523 4.2682C27.6647 3.75133 28.1551 3.19977 29.2296 3.05953C29.7615 2.98868 31.2297 2.93447 32.8943 3.70543L33.5477 0.642178C32.6525 0.314346 31.5019 0.000430107 30.0694 0.000430107C26.3952 0.000430107 23.8109 1.96489 23.7901 4.77657ZM39.8256 0.264285C39.1128 0.264285 38.5121 0.682477 38.244 1.32422L32.6677 14.7154H36.5686L37.3448 12.5578H42.1116L42.5619 14.7154H46L42.9998 0.264285H39.8256ZM40.3713 4.16808L41.497 9.59465H38.414L40.3713 4.16808ZM19.0605 0.264465L15.9857 14.7152H19.7029L22.7763 0.264105H19.0605M13.5616 0.264105L9.69252 10.1003L8.12745 1.737C7.9438 0.803382 7.21859 0.264285 6.41323 0.264285H0.0885859L0 0.683924C1.29842 0.967297 2.77366 1.42435 3.66742 1.91338C4.21439 2.21212 4.37036 2.47326 4.55005 3.18314L7.51435 14.7154H11.4425L17.4649 0.264285L13.5616 0.264105Z" fill="url(#paint0_linear_947_3121)"/>
</g>
<defs>
<linearGradient id="paint0_linear_947_3121" x1="2114.8" y1="44.9101" x2="2158.3" y2="-1489.44" gradientUnits="userSpaceOnUse">
<stop stop-color="#222357"/>
<stop offset="1" stop-color="#254AA5"/>
</linearGradient>
<clipPath id="clip0_947_3121">
<rect width="46" height="15" fill="white"/>
</clipPath>
</defs>
</svg>
