<svg width="31" height="30" viewBox="0 0 31 30" fill="none" xmlns="http://www.w3.org/2000/svg">
<path d="M11.1024 4.94807C10.9324 5.12181 10.8365 5.3548 10.835 5.59788C10.8334 5.84096 10.9264 6.07513 11.0942 6.25098C11.2621 6.42684 11.4916 6.53063 11.7345 6.54046C11.9774 6.5503 12.2146 6.4654 12.3961 6.30369L14.858 3.95244C15.0327 3.78593 15.2648 3.69321 15.5062 3.69355C15.7475 3.6939 15.9794 3.7873 16.1536 3.95432L18.6005 6.30182C18.7816 6.46353 19.0184 6.54867 19.261 6.53932C19.5036 6.52997 19.7331 6.42686 19.9013 6.25169C20.0694 6.07652 20.163 5.84295 20.1624 5.60015C20.1618 5.35735 20.067 5.12426 19.898 4.94994L17.453 2.60244C16.9302 2.1003 16.2337 1.81941 15.5088 1.81836C14.7839 1.81731 14.0866 2.09619 13.5624 2.59682L11.1024 4.94807ZM6.80299 11.8987C6.89291 11.8107 6.96421 11.7055 7.01263 11.5894C7.06104 11.4733 7.08559 11.3486 7.08481 11.2228C7.08402 11.0969 7.05792 10.9726 7.00806 10.8571C6.9582 10.7416 6.88559 10.6373 6.79458 10.5504C6.70356 10.4635 6.59599 10.3959 6.47828 10.3515C6.36056 10.3071 6.23511 10.2868 6.1094 10.2919C5.98369 10.297 5.86029 10.3273 5.74655 10.3811C5.63281 10.4349 5.53106 10.511 5.44736 10.6049L3.10174 13.0556C2.60146 13.5789 2.32227 14.275 2.32227 14.999C2.32227 15.723 2.60146 16.4191 3.10174 16.9424L5.44736 19.3987C5.61917 19.5785 5.85536 19.6826 6.10396 19.6882C6.35256 19.6939 6.59322 19.6005 6.77299 19.4287C6.95275 19.2569 7.05691 19.0207 7.06253 18.7721C7.06816 18.5235 6.9748 18.2828 6.80299 18.1031L4.45736 15.6468C4.29115 15.4725 4.19843 15.2408 4.19843 14.9999C4.19843 14.7591 4.29115 14.5274 4.45736 14.3531L6.80299 11.8987ZM12.398 23.6981C12.2182 23.5263 11.9776 23.4329 11.729 23.4385C11.4804 23.4441 11.2442 23.5483 11.0724 23.7281C10.9006 23.9078 10.8072 24.1485 10.8128 24.3971C10.8184 24.6457 10.9226 24.8819 11.1024 25.0537L13.5661 27.4087C14.0908 27.9102 14.789 28.1894 15.5148 28.188C16.2406 28.1866 16.9377 27.9047 17.4605 27.4012L19.8999 25.0499C19.9885 24.9645 20.0595 24.8624 20.1086 24.7496C20.1578 24.6367 20.1843 24.5153 20.1866 24.3922C20.1889 24.2691 20.1669 24.1467 20.1218 24.0322C20.0768 23.9176 20.0097 23.813 19.9242 23.7243C19.8388 23.6357 19.7367 23.5647 19.6239 23.5155C19.511 23.4663 19.3896 23.4398 19.2665 23.4376C19.1434 23.4353 19.021 23.4573 18.9065 23.5023C18.7919 23.5474 18.6873 23.6145 18.5986 23.6999L16.1611 26.0512C15.9867 26.2193 15.754 26.3134 15.5118 26.3138C15.2696 26.3141 15.0366 26.2207 14.8617 26.0531L12.398 23.6981ZM25.5511 10.6012C25.4658 10.5123 25.3638 10.4411 25.251 10.3916C25.1381 10.3421 25.0166 10.3154 24.8935 10.3129C24.7703 10.3103 24.6478 10.3321 24.533 10.3769C24.4183 10.4217 24.3134 10.4887 24.2246 10.574C24.1357 10.6593 24.0644 10.7613 24.015 10.8742C23.9655 10.987 23.9387 11.1085 23.9362 11.2317C23.9337 11.3548 23.9555 11.4773 24.0003 11.5921C24.0451 11.7069 24.112 11.8117 24.1974 11.9006L26.5561 14.3568C26.724 14.5314 26.8177 14.7643 26.8177 15.0065C26.8177 15.2487 26.724 15.4816 26.5561 15.6562L24.1992 18.1012C24.1138 18.1898 24.0467 18.2944 24.0016 18.409C23.9566 18.5236 23.9346 18.646 23.9369 18.7691C23.9391 18.8921 23.9656 19.0136 24.0148 19.1265C24.064 19.2393 24.135 19.3414 24.2236 19.4268C24.3123 19.5123 24.4169 19.5794 24.5315 19.6244C24.646 19.6694 24.7684 19.6914 24.8915 19.6892C25.0146 19.6869 25.136 19.6604 25.2489 19.6112C25.3617 19.562 25.4638 19.4911 25.5492 19.4024L27.9061 16.9574C28.4105 16.4337 28.6925 15.735 28.6928 15.0078C28.6932 14.2807 28.4119 13.5817 27.908 13.0574L25.5511 10.6012ZM9.87424 12.1874C9.87424 11.4415 10.1706 10.7261 10.698 10.1987C11.2254 9.67126 11.9408 9.37494 12.6867 9.37494H18.3117C19.0577 9.37494 19.773 9.67126 20.3005 10.1987C20.8279 10.7261 21.1242 11.4415 21.1242 12.1874V17.8124C21.1242 18.5584 20.8279 19.2737 20.3005 19.8012C19.773 20.3286 19.0577 20.6249 18.3117 20.6249H12.6867C11.9408 20.6249 11.2254 20.3286 10.698 19.8012C10.1706 19.2737 9.87424 18.5584 9.87424 17.8124V12.1874Z" fill="#1B1B1B"/>
</svg>
